<?xml version="1.0" encoding="UTF-8" standalone="no"?>
<svg
   viewBox="0 0 542.81 176.23"
   version="1.1"
   id="svg23"
   sodipodi:docname="logo-cnsmdp.svg"
   inkscape:version="1.1 (c68e22c387, 2021-05-23)"
   xmlns:inkscape="http://www.inkscape.org/namespaces/inkscape"
   xmlns:sodipodi="http://sodipodi.sourceforge.net/DTD/sodipodi-0.dtd"
   xmlns="http://www.w3.org/2000/svg"
   xmlns:svg="http://www.w3.org/2000/svg">
  <sodipodi:namedview
     id="namedview25"
     pagecolor="#ffffff"
     bordercolor="#666666"
     borderopacity="1.0"
     inkscape:pageshadow="2"
     inkscape:pageopacity="0.0"
     inkscape:pagecheckerboard="0"
     showgrid="false"
     inkscape:zoom="2.3562573"
     inkscape:cx="271.1928"
     inkscape:cy="88.063389"
     inkscape:window-width="3840"
     inkscape:window-height="2081"
     inkscape:window-x="2391"
     inkscape:window-y="-9"
     inkscape:window-maximized="1"
     inkscape:current-layer="svg23" />
  <defs
     id="defs5">
    <clipPath
       id="a">
      <path
         fill="none"
         d="M0 0h542.81v176.22H0z"
         id="path2" />
    </clipPath>
  </defs>
  <g
     data-name="Calque 2"
     id="g21"
     inkscape:export-filename="C:\Users\hhoar\IdeaProjects\DataCulturePro\FrontEnd\OpenAlumniClient\src\assets\Logo-CNSMDP.png"
     inkscape:export-xdpi="101.6"
     inkscape:export-ydpi="101.6">
    <g
       data-name="Calque 1"
       id="g19">
      <g
         clip-path="url(#a)"
         id="g11">
        <path
           d="M477.83 176.23c8.89 0 14.61-4.26 14.61-11.2v-.1c0-6.67-5.67-9.12-14.13-10.69-3.51-.66-4.4-1.23-4.4-2.12V152c0-.8.76-1.37 2.41-1.37a17.43 17.43 0 0 1 9.93 3.26l5.38-7.46c-3.82-3-8.55-4.54-14.93-4.54-9.13 0-14 4.87-14 11.15v.1c0 7 6.52 9.12 13.94 10.64 3.55.71 4.59 1.23 4.59 2.17v.1c0 .9-.85 1.41-2.84 1.41a19 19 0 0 1-11.58-3.87l-5.9 7c4.2 3.69 10.25 5.58 17 5.58m-32.28-.62h11.06v-33.03h-11.14zm-25.77-17.34v-6.49h4.83c2.55 0 4.21 1 4.21 3.17v.1c0 2-1.61 3.22-4.26 3.22zm-11.06 17.34h11.06v-9.45h2.36l6.25 9.45H441l-7.71-11.25a10.69 10.69 0 0 0 6.52-10.11v-.1a10.38 10.38 0 0 0-3-7.84c-2.32-2.32-6.05-3.79-11.91-3.79h-16.18zm-24.24-12.29l3-8 3 8zm-16.31 12.29H380l1.7-4.44h11.58l1.75 4.44h12l-13.95-33.32h-11zm-15.45-16.81v-7.38h3c2.94 0 4.69 1.23 4.69 3.64v.1c0 2.36-1.89 3.64-4.73 3.64zm-11.06 16.87h11.06v-9h3.59c8.94 0 15-4.25 15-12.24v-.1c0-7.84-6-11.77-14.79-11.77h-14.86zm-44.13 0h28.45v-9.07h-17.58v-3.6h16.16v-8h-16.16v-3.34h17.35v-9.08h-28.22zm-24.11-23.45c5.06 0 8.32 2.08 8.32 6.86v.09c0 4.78-3.26 6.86-8.32 6.86h-1.85v-13.81zm-12.9 23.45h12.28c13.38 0 20.09-7 20.09-16.73v-.09c0-9.79-6.57-16.27-19.71-16.27H260.6z"
           fill="#da1020"
           id="path7" />
        <path
           d="M219 175.61h24.1v-3.4h-20.42v-11.58h18.06v-3.4h-18.06v-11.31h20.19v-3.4H219zm-18.48.47c6.95 0 11.81-3.68 11.81-9.87v-.1c0-5.48-3.59-8-10.59-9.69-6.38-1.52-7.89-2.65-7.89-5.2v-.1c0-2.17 2-3.92 5.39-3.92a15 15 0 0 1 9 3.41l3.12-4.4a18.31 18.31 0 0 0-12-4.16c-6.57 0-11.29 3.92-11.29 9.6v.09c0 6.1 4 8.18 11 9.88 6.15 1.42 7.47 2.69 7.47 5.06v.1c0 2.45-2.27 4.16-5.86 4.16-4.07 0-7.28-1.57-10.45-4.31l-3.49 4.16a20.33 20.33 0 0 0 13.8 5.29m-48.64-.47h7.1v-21l16 21h6.19v-33.09H174v20.38l-15.51-20.38h-6.7zm-24.21-13.09l3.73-9.36 3.69 9.36zM113 175.61h9.59l2.37-6h12.8l2.37 6h9.83l-14.09-33.32H127zm-19.1-23.45c5.07 0 8.33 2.08 8.33 6.86v.09c0 4.78-3.26 6.86-8.33 6.86H92v-13.81zM81 175.61h12.26c13.38 0 20.09-7 20.09-16.73v-.09c0-9.79-6.57-16.27-19.71-16.27H81zm-40.94 0h24.13v-3.4H43.77v-11.58h18v-3.4h-18v-11.31H64v-3.4H40zM15 146c8.37 0 13.71 5.77 13.71 13.1v.09c0 7.33-5.34 13-13.71 13H7.27V146zM3.55 175.61H15c10.4 0 17.58-7.23 17.58-16.54V159c0-9.31-7.18-16.45-17.58-16.45H3.55zm362.51-47.27h3.77V98.7h11.11v-3.45H355v3.45h11.11zm-39.33 0h24.15v-3.4h-20.42v-11.58h18.06V110h-18.06V98.65h20.18v-3.4h-23.91zm-44 0h24.15v-3.4H286.5v-11.58h18.05V110H286.5V98.65h20.18v-3.4h-23.91zm-22.36.52c8.27 0 13.79-5 13.79-14.65v-19h-3.72v19.24c0 7.23-3.88 10.92-10 10.92-6.29 0-10.12-4-10.12-11.15v-19h-3.73v19.24c0 9.36 5.58 14.37 13.76 14.37m-38.1-3.4c-7.57 0-13.06-6.14-13.06-13.66v-.1c0-7.52 5.39-13.57 13-13.57s13 6.15 13 13.67v.09a14.1 14.1 0 0 1-2.79 8.65l-6.19-5.62-2.51 2.78L230 123a12.65 12.65 0 0 1-7.65 2.46m17.25 1.09l-4.35-3.69a17.63 17.63 0 0 0 3.92-11.06v-.1c0-9.12-6.75-17-16.82-17s-16.93 8-16.93 17.11v.09c0 9.13 6.76 17 16.83 17a16.67 16.67 0 0 0 10.4-3.5l4.39 3.92zm-47.18 1.79h5.81V95.25h-5.81zm-19.44.47c7.14 0 12.15-3.68 12.15-10.25v-.09c0-5.78-3.79-8.19-10.49-9.94-5.73-1.46-7.15-2.17-7.15-4.35v-.09c0-1.61 1.47-2.89 4.26-2.89s5.67 1.23 8.6 3.27l3.74-5.47a19.14 19.14 0 0 0-12.28-4.2c-6.77 0-11.58 4-11.58 10v.1c0 6.57 4.3 8.41 11 10.11 5.53 1.42 6.67 2.37 6.67 4.21v.1c0 1.94-1.8 3.12-4.78 3.12-3.78 0-6.9-1.56-9.88-4l-4.3 5.15a21.06 21.06 0 0 0 14 5.29m-34 .14c9.41 0 15.51-4.72 15.51-15.36V95.25h-9.26v18.63c0 4.63-2.41 6.8-6.15 6.8s-6.1-2.26-6.1-7V95.25h-9.26v18.58c0 10.35 5.91 15.12 15.26 15.12m-58-.61h10.85v-16.4l7.62 11.77h.19l7.61-11.77v16.4h11V95.25h-11.52l-7.09 11.63-7.09-11.63H81zm-40.94 0h24.19v-3.4H43.77v-11.58h18V110h-18V98.65H64v-3.4H40zM15 98.7c8.37 0 13.71 5.77 13.71 13.1v.09c0 7.33-5.34 13-13.71 13H7.27V98.7zM3.55 128.34H15c10.4 0 17.58-7.23 17.58-16.54v-.1c0-9.31-7.18-16.45-17.58-16.45H3.55zm515.63-63.48V51.43h10.21c5.34 0 8.47 2.46 8.47 6.52v.1c0 4.26-3.55 6.81-8.52 6.81zm-3.73 16.21h3.73V68.21h9.46l9.6 12.86h4.57l-10.16-13.52c5.21-.94 9-4.16 9-9.64v-.1a9.1 9.1 0 0 0-2.55-6.52c-2.1-2.08-5.36-3.29-9.42-3.29h-14.23zm-22.36.52c8.27 0 13.8-5 13.8-14.65V48h-3.73v19.22c0 7.23-3.88 10.92-10 10.92-6.29 0-10.12-4-10.12-11.16V48h-3.73v19.22c0 9.36 5.58 14.37 13.76 14.37m-43.82-.52h24.15v-3.4H453V66.08h18.06v-3.4H453v-11.3h20.18V48h-23.91zm-12.95 0h3.73V48h-3.73zm-30.52-16.21V51.43H416c5.34 0 8.46 2.46 8.46 6.52v.1c0 4.26-3.54 6.81-8.51 6.81zm-3.73 16.21h3.73V68.21h9.45l9.6 12.86h4.58l-10.16-13.52c5.2-.94 9-4.16 9-9.64v-.1a9.1 9.1 0 0 0-2.55-6.52c-2.08-2.08-5.34-3.31-9.41-3.31h-14.24zm-32.66 0h24.77v-5.2h-19V67h16.59v-5.2H375.2v-8.6h18.72V48h-24.53zm10-35.83h4.44l6-4.58-5.2-2.27zm-34.7 19.43V54.54h5.63c3.64 0 5.91 1.76 5.91 5v.09c0 2.85-2.13 5-5.77 5zm-7.28 16.4h7.28v-9.93h5.53c7.43 0 13.38-4 13.38-11.62v-.1C363.62 52.66 358.85 48 351 48h-13.57zm-22.65.61c9.41 0 15.5-4.72 15.5-15.36V48H321v18.61c0 4.63-2.41 6.8-6.15 6.8s-6.1-2.27-6.1-7V48h-9.26v18.56c0 10.35 5.9 15.12 15.26 15.12m-34.64 0c8.88 0 14.6-4.25 14.6-11.2v-.09c0-6.67-5.67-9.13-14.13-10.69-3.5-.66-4.4-1.23-4.4-2.13v-.09c0-.81.76-1.37 2.41-1.37a17.34 17.34 0 0 1 9.93 3.26l5.39-7.47c-3.83-3-8.55-4.53-14.94-4.53-9.12 0-14 4.87-14 11.15v.09c0 7 6.52 9.13 14 10.64 3.54.71 4.58 1.23 4.58 2.18v.09c0 .9-.85 1.42-2.84 1.42a18.92 18.92 0 0 1-11.58-3.88l-5.9 7c4.2 3.68 10.25 5.57 17 5.57m-50.63-.61h22.35v-3.4h-18.71V48h-3.73zm-29.83-12.1l7.57-16.83 7.51 16.83zm-9.21 12.15h3.83l3.92-8.75h18l3.87 8.75h4l-15.05-33.32h-3.49zm-33.28 0h3.63V53.94l21.38 27.13h3V48h-3.63v26.5L160.77 48h-3.49zm-24-2.88c-7.56 0-13-6.15-13-13.66v-.1c0-7.52 5.39-13.57 13-13.57s12.99 6.14 12.99 13.67v.09c0 7.52-5.39 13.57-13 13.57m-.09 3.44c10.07 0 16.92-8 16.92-17.1v-.1c0-9.12-6.76-17-16.83-17s-16.92 8-16.92 17.12v.09c0 9.13 6.75 17 16.83 17m-30.59-.56h5.81V48h-5.81zm-23.26 0h7.27V54.69h10.11V48H69.3v6.71h10.07zM51 68l3.74-9.36L58.38 68zM36.3 81.07h9.6l2.36-6h12.81l2.36 6h9.84L59.18 47.75h-8.84zm-35.54 0h11V65.8L24 81.07h9.83V48h-11v14.59L11.1 48H.76z"
           fill="#9a1311"
           id="path9" />
      </g>
      <path
         fill="#da1020"
         d="M404.73 33.8h28.45v-9.08H415.6v-3.59h16.16v-7.99H415.6V9.78h17.34V.71h-28.21V33.8z"
         id="path13" />
      <g
         clip-path="url(#a)"
         id="g17">
        <path
           d="M379.3 16.45V10h4.82c2.55 0 4.21 1 4.21 3.17v.1c0 2-1.61 3.21-4.26 3.21zm-11.06 17.34h11.06v-9.45h2.36l6.24 9.45h12.62l-7.71-11.24a10.7 10.7 0 0 0 6.53-10.12v-.09a10.37 10.37 0 0 0-3-7.85C394 2.17 390.27.71 384.4.71h-16.16zm-17.18 0h11.06V.71h-11.06zm-22.91-9.06c-4.25 0-6.95-3.55-6.95-7.48v-.09c0-3.88 2.65-7.38 6.86-7.38s6.94 3.55 6.94 7.47v.1c0 3.88-2.65 7.38-6.86 7.38m-.09 9.77c10.21 0 18.1-7.65 18.1-17.25v-.09c0-9.6-7.79-17.16-18-17.16s-18.1 7.65-18.1 17.25v.1c0 9.59 7.8 17.15 18 17.15m-39-.71h11.05V10.07h9.74V.71h-30.56v9.36H289zm-26.79-12.28l3-8 3 8zM246 33.79h11.82l1.7-4.44h11.58l1.75 4.44h12L270.86.47h-11zM228 34h10.59L252 .71h-12.15l-6.43 18.58L227 .71h-12.39zm-33.86-17.55V10H199c2.56 0 4.21 1 4.21 3.17v.1c0 2-1.61 3.21-4.25 3.21zm-11.06 17.34h11.06v-9.45h2.36l6.25 9.45h12.61l-7.7-11.24a10.71 10.71 0 0 0 6.52-10.12v-.09a10.4 10.4 0 0 0-3-7.85c-2.32-2.32-6-3.78-11.92-3.78h-16.18zm-34.65 0h28.45v-9.06H159.3v-3.6h16.16v-8H159.3V9.78h17.35V.71h-28.22zm-18.86.62c8.89 0 14.6-4.25 14.6-11.2v-.09c0-6.67-5.67-9.13-14.13-10.69-3.5-.66-4.4-1.23-4.4-2.13v-.09c0-.81.76-1.37 2.41-1.37A17.34 17.34 0 0 1 138 12.1l5.39-7.47c-3.83-3-8.55-4.54-14.94-4.54-9.12 0-14 4.87-14 11.16v.09c0 7 6.52 9.13 13.94 10.64 3.54.71 4.59 1.23 4.59 2.18v.09c0 .9-.85 1.42-2.84 1.42a18.9 18.9 0 0 1-11.58-3.88l-5.91 7.05c4.21 3.68 10.25 5.57 17 5.57m-53.79-.62h11V18.53L99 33.79h9.83V.71h-11v14.61L86.12.71H75.78zm-22.73-9.06c-4.25 0-7-3.55-7-7.48v-.09c0-3.88 2.65-7.38 6.86-7.38s7 3.55 7 7.47v.1c0 3.88-2.65 7.38-6.86 7.38M53 34.5c10.21 0 18.1-7.65 18.1-17.25v-.09C71.1 7.56 63.3 0 53.1 0S35 7.65 35 17.25v.1c0 9.59 7.79 17.15 18 17.15m-35.89 0c8.23 0 12.86-4 15.65-8.92l-9.12-5.16c-1.37 2.46-3.12 4.16-6.24 4.16-3.64 0-6.19-3-6.19-7.33v-.09c0-4 2.46-7.24 6.19-7.24 3 0 4.77 1.66 6 4l9.16-5.32c-2.79-5.06-7.7-8.6-15-8.6C7.7 0 0 7.37 0 17.25v.1A16.84 16.84 0 0 0 17.15 34.5"
           fill="#da1020"
           id="path15" />
      </g>
    </g>
  </g>
</svg>
